<?xml version="1.0" encoding="utf-8"?>
<!-- Uploaded to SVGRepo https://www.svgrepo.com -->
<svg version="1.1" id="Layer_1" xmlns="http://www.w3.org/2000/svg" xmlns:xlink="http://www.w3.org/1999/xlink" x="0px" y="0px"
	 width="250px" height="260px" viewBox="0 0 250 260" style="enable-background:new 0 0 250 260;" xml:space="preserve">
<path d="M151,39.5l-15.1,27.1l14.2-45l11.5,12.9L179.9,2L164,50.9L151,39.5z M204.2,162.6c0,52.7-42.7,95.4-95.4,95.4
	c-52.7,0-95.4-42.7-95.4-95.4c0-26.7,10.9-50.7,28.6-68.1L13.6,64.9l16.8-6.3L2.3,14.9l52.6,53.9l-17.6,4.3l10.4,16.3
	c16.6-13.8,37.9-22.2,61.2-22.2c18.5,0,35.8,5.3,50.4,14.4L196.3,35l7.8,20.7l43.5-31.4l-49.8,60.7l-10.1-19.1l-23.2,19.4
	C188.6,102.6,204.2,130.7,204.2,162.6z M69.6,167.9c10,0,18.2-7.4,19.6-17L48,128l-4.8,8.6l25.6,14.2H50
	C51.4,160.5,59.6,167.9,69.6,167.9z M158,210.3c0-23.6-22.1-10.6-49.3-10.6s-49.3-13.2-49.3,10.6c0,18.8,25.4,2.8,49.3,2.8
	C133,213.1,158,229.1,158,210.3z M148.8,150.9l25.6-14.2l-4.8-8.6l-41.1,22.9c1.4,9.6,9.6,17,19.6,17c10,0,18.2-7.4,19.6-17H148.8z"
	/>
</svg>
