<svg xmlns="http://www.w3.org/2000/svg" viewBox="0 0 994 645.38"><title>brain</title><g id="Shadow"><path d="M517,668.12c-29.11.08-58.22.76-87.27,3.89-11,1.18-21.69,3.78-32.67,4.82-21.93,2.09-43.47,6-65.48,7.8-17.73,1.45-35.53,2.3-53.21,4.14A193.28,193.28,0,0,1,227,687.25c-12.18-2.11-24.41-3.3-36.38-6.68-13.38-3.79-27.93-6.5-41.88-6.4-19.89.13-39.26.15-58.3,6.84-6.68,2.35-14.86,6.21-19.94,11.14C58.92,703.43,57.35,731.58,69,743.28c19.54,19.69,61.23,27.42,88.62,27.79,30,.39,59.16-1.76,89.21-3,27.92-1.18,55.78-2.86,83.75-2.8,57.13.12,114.26,0,171.29-3.69,53.57-3.48,107.28-2.28,161-2.28,55.06,0,109.75.41,164.41,7.5,23.82,3.09,48.08,4.17,72,6.33,21.44,1.94,42,0,63.39-1.82a155.32,155.32,0,0,0,52-13.51c12.89-6,35.88-24.5,39.83-38.75,11.09-39.93-156.22-39-181.9-38.88-28.74.1-57.7,1-86.42,0-12.08-.44-24-2.73-35.77-5.24s-23.57-1.86-35.48-2.91c-49.65-4.37-99.42-3.73-149.23-3.73C549.46,668.21,533.24,668.07,517,668.12Z" transform="translate(-61 -128.52)" fill="#f7f7f7"/></g><g id="Object"><path d="M486.66,480.79v52a14.43,14.43,0,0,0,.39-3.27V447.16h-.39Z" transform="translate(-61 -128.52)" fill="#d9a3a3"/><path d="M486.68,410.89V360a14.35,14.35,0,0,0-.41,3.31v81.5h.39V410.89Z" transform="translate(-61 -128.52)" fill="#d9a3a3"/><path d="M471.38,595a14,14,0,0,0-5.58,1.81A99.77,99.77,0,0,1,449,605c5.56-1.84,11.06-4.83,16.83-8A18.1,18.1,0,0,1,471.38,595Z" transform="translate(-61 -128.52)" fill="#d9a3a3"/><path d="M524.28,359.06A99.31,99.31,0,0,1,507.53,351a14.12,14.12,0,0,0-5.58-1.81,18.1,18.1,0,0,1,5.51,2C513.23,354.23,518.73,357.22,524.28,359.06Z" transform="translate(-61 -128.52)" fill="#d9a3a3"/><path d="M486.65,605.87V713.44h.41V609.18A14.35,14.35,0,0,0,486.65,605.87Z" transform="translate(-61 -128.52)" fill="#d9a3a3"/><path d="M335.58,425.42a13.91,13.91,0,0,1,2.14,7.75,14,14,0,0,0-2.09-8.91c-5.74-9.2-9.41-19.42-9.36-29.06C325.91,405.18,329.62,415.85,335.58,425.42Z" transform="translate(-61 -128.52)" fill="#d9a3a3"/><path d="M401.09,397.79c-.45,9.26-5.1,18.06-10.18,26.95a14.06,14.06,0,0,0-1.87,7.12,14,14,0,0,1,1.83-5.94C396.16,416.66,401,407.48,401.09,397.79Z" transform="translate(-61 -128.52)" fill="#d9a3a3"/><path d="M486.67,286.87V176.2h-.39V283.6A14.49,14.49,0,0,0,486.67,286.87Z" transform="translate(-61 -128.52)" fill="#d9a3a3"/><path d="M471.38,595a18.1,18.1,0,0,0-5.51,2c-5.77,3.13-11.27,6.12-16.83,8-8.36,2.85-17,3.29-26.19-1.73-18.82-10.24-25.79-35.56-14.93-54,13.38-22.75,37.72-20,57.4-7.67a14.21,14.21,0,0,0,21.34-8.79V447.16h0v-2.38h-.39v1.92H399.49A14.26,14.26,0,0,1,389,431.86a14.06,14.06,0,0,1,1.87-7.12c5.08-8.89,9.73-17.69,10.18-26.95A29.84,29.84,0,0,0,397.27,383c-10.22-18.83-35.54-25.81-54-15-11.69,6.87-16.63,16.64-17,27.18,0,9.64,3.62,19.86,9.36,29.06a14,14,0,0,1,2.09,8.91A14.27,14.27,0,0,1,327,446.7H251.53c-.25.38-.51.75-.75,1.14-6.51,10.65-5.17,18.56,4.55,25.26,6.22,4.29,12.79,8,18.24,13.54,8.33,8.5,8.87,13.51,2.51,24C268.93,522.49,269,523,280,531.37c3,2.26,6.07,4,1.93,8.22-6.1,6.28-3.92,12.41,1.33,17,7.37,6.42,8.48,14.66,7.09,23.88-1.2,8-3,16-4.49,24-4.06,21.55,1.59,31.55,21.06,37.21,20.33,5.91,40.55.79,60.82-1.16,13.58-1.31,26.95-6,40.85-2.6,9,2.23,14,7.75,15.16,17.85,1.69,14.74,6.08,28.82,8.59,43.32,2,11.83,7.19,15.52,17.84,15,8.92-.4,21.69-.59,36.5-.64V605.87A14.26,14.26,0,0,0,471.38,595Z" transform="translate(-61 -128.52)" fill="#587bc9"/><path d="M560.13,244a14.2,14.2,0,0,0,22.79,3.59c16.29-16.51,39.31-24.89,57.62-5.87,14.84,15.42,13.94,41.67-2,56-7.82,7-16.28,8.6-25.08,7.77-5.83-.5-11.87-2.13-18.21-3.84a18,18,0,0,0-5.82-.62,14.24,14.24,0,0,0-12.33,14.08l11.83,49.53h0l7.86,33h0l.28,1.19.27,1.12.38-.09,85.44-20.4a14.21,14.21,0,0,1,12,18.11c-4.48,15.29-8,30.15,3.75,43.25,14.31,15.94,40.55,16.85,56,2,19-18.29,10.67-41.32-5.83-57.62a14.22,14.22,0,0,1,2.28-22l52.24-12.47a180.67,180.67,0,0,0-.57-56C794,249,776.24,213.64,748.21,188c-57.51-52.69-123.87-67.1-194.33-55.9a166.52,166.52,0,0,0-19.46,4.32l13.63,57.08Z" transform="translate(-61 -128.52)" fill="#3b455a"/><polygon points="425.67 316.26 425.66 316.26 425.66 318.64 425.66 318.64 425.67 317.49 425.67 316.26" fill="#7db5db"/><path d="M647.67,714.12c12.71-.69,6.54-8.63.68-21-47.57-100,9.09-180.58,18.37-191.86a202.23,202.23,0,0,0,32-54.15H645a14.21,14.21,0,0,0-7.34,20.9c12.26,19.69,15.05,44-7.71,57.4-18.45,10.85-43.77,3.87-54-15-8.41-15.47-1.51-29.1,6.4-42.94a14.21,14.21,0,0,0-7.49-20.4H487.05V529.5a14.43,14.43,0,0,1-.39,3.27v.35a14.22,14.22,0,0,1-21.29,8.59c-19.69-12.27-44-15.06-57.4,7.69-10.85,18.46-2.82,43.34,16,53.57,9.1,4.94,17.14,4.63,25.07,2a99.77,99.77,0,0,0,16.76-8.11,14,14,0,0,1,5.58-1.81c7.24-1.28,13.64,2.73,15.27,10.59v.24a14.35,14.35,0,0,1,.4,3.31V713.43C544.38,713.22,632,715,647.67,714.12Z" transform="translate(-61 -128.52)" fill="#305399"/><path d="M486.65,605.87v-.24c-1.63-7.86-8-11.87-15.27-10.59A14.26,14.26,0,0,1,486.65,605.87Z" transform="translate(-61 -128.52)" fill="#305399"/><path d="M465.32,541.56c-19.68-12.28-44-15.08-57.4,7.67-10.86,18.44-3.89,43.76,14.93,54,9.24,5,17.83,4.58,26.19,1.73-7.93,2.64-16,2.95-25.07-2-18.82-10.23-26.85-35.11-16-53.57,13.38-22.75,37.71-20,57.4-7.69a14.22,14.22,0,0,0,21.29-8.59v-.35A14.21,14.21,0,0,1,465.32,541.56Z" transform="translate(-61 -128.52)" fill="#305399"/><path d="M565.41,303.33C552,280.58,527.68,283.38,508,295.66a14.21,14.21,0,0,1-21.33-8.79,14.49,14.49,0,0,1-.4-3.27V176.21c-29.33,1.33-57.86,10.16-85.24,23.58-7.36,3.61-14.6,7.56-21.77,11.62-50.34,28.51-78.35,72.28-76,136.42,1.34,36-14.69,62.19-38.36,84.21-4.29,4-8.54,7.94-12,12.72-.47.63-.91,1.28-1.35,1.94H327a14.27,14.27,0,0,0,10.73-13.53,14,14,0,0,0-2.14-7.75c-6-9.57-9.68-20.24-9.31-30.22.38-10.54,5.32-20.31,17-27.18,18.45-10.85,43.77-3.87,54,15a29.84,29.84,0,0,1,3.82,14.81c-.1,9.69-4.93,18.87-10.22,28.13a14,14,0,0,0-1.83,5.94,14.26,14.26,0,0,0,10.45,14.84h86.78V363.28A14.3,14.3,0,0,1,502,349.14a14.12,14.12,0,0,1,5.58,1.81,99.31,99.31,0,0,0,16.75,8.11c8.37,2.85,17,3.29,26.2-1.74C569.3,347.09,576.26,321.77,565.41,303.33Z" transform="translate(-61 -128.52)" fill="#7db5db"/></g></svg>