<svg width="24" height="24" viewBox="0 0 24 24" fill="none" xmlns="http://www.w3.org/2000/svg">
<path d="M18 20H6C5.46957 20 4.96086 19.7893 4.58579 19.4142C4.21071 19.0391 4 18.5304 4 18V6C4 5.46957 4.21071 4.96086 4.58579 4.58579C4.96086 4.21071 5.46957 4 6 4H18C18.5304 4 19.0391 4.21071 19.4142 4.58579C19.7893 4.96086 20 5.46957 20 6V18C20 18.5304 19.7893 19.0391 19.4142 19.4142C19.0391 19.7893 18.5304 20 18 20Z" stroke="#181A1C" stroke-width="2" stroke-linecap="round" stroke-linejoin="round"/>
<path d="M8.79533 12.2077H8.69533V12.3077V13.0117V13.1117H8.79533H9.83487C9.80083 13.4292 9.66683 13.669 9.46367 13.8348C9.23683 14.0199 8.91378 14.1205 8.52243 14.1205C7.98942 14.1205 7.62138 13.9342 7.38436 13.6435C7.14476 13.3495 7.02932 12.9368 7.02932 12.4691C7.02932 12.0354 7.14411 11.6333 7.38244 11.3416C7.61834 11.0529 7.98328 10.8624 8.50768 10.8624C8.82503 10.8624 9.10804 10.9329 9.33827 11.0772C9.56752 11.2208 9.75024 11.441 9.86299 11.7512L9.89793 11.8473L9.99323 11.8102L10.823 11.4874L10.9223 11.4488L10.8774 11.3522C10.4392 10.4071 9.5756 9.9 8.51506 9.9C7.62968 9.9 6.97238 10.2028 6.53736 10.6865C6.10393 11.1684 5.9 11.8199 5.9 12.5034C5.9 13.1891 6.10787 13.839 6.54419 14.3187C6.98198 14.7999 7.64094 15.1 8.52243 15.1C9.13505 15.1 9.6638 14.8777 9.99411 14.5081L10.0457 14.9431L10.0562 15.0313H10.1451H10.8863H10.9863V14.9313V12.3077V12.2077H10.8863H8.79533ZM11.9258 14.9313V15.0313H12.0258H12.9625H13.0625V14.9313V10.079V9.97898H12.9625H12.0258H11.9258V10.079V14.9313ZM14.2049 14.9313V15.0313H14.3049H15.2415H15.3415V14.9313V13.0052H17.6755H17.7755V12.9052V12.1051V12.0051H17.6755H15.3415V10.9791H18H18.1V10.8791V10.079V9.97898H18H14.3049H14.2049V10.079V14.9313Z" fill="#181A1C" stroke="#181A1C" stroke-width="0.2"/>
</svg>
