<svg width="48" height="47" viewBox="0 0 48 47" fill="none" xmlns="http://www.w3.org/2000/svg">
<path d="M24.0002 4.89584C24.7304 4.89587 25.4344 5.16789 25.975 5.65884C26.5155 6.14979 26.8539 6.82448 26.924 7.55134L26.9377 7.83334V39.1667C26.9373 39.9211 26.6467 40.6464 26.1261 41.1923C25.6055 41.7383 24.8948 42.0631 24.1413 42.0993C23.3878 42.1356 22.6492 41.8805 22.0786 41.3871C21.508 40.8936 21.1492 40.1995 21.0764 39.4487L21.0627 39.1667V7.83334C21.0627 7.05426 21.3721 6.3071 21.923 5.75621C22.4739 5.20532 23.2211 4.89584 24.0002 4.89584ZM16.1668 10.7708C16.9459 10.7708 17.6931 11.0803 18.244 11.6312C18.7948 12.1821 19.1043 12.9293 19.1043 13.7083V33.2917C19.1043 34.0707 18.7948 34.8179 18.244 35.3688C17.6931 35.9197 16.9459 36.2292 16.1668 36.2292C15.3878 36.2292 14.6406 35.9197 14.0897 35.3688C13.5388 34.8179 13.2293 34.0707 13.2293 33.2917V13.7083C13.2293 12.9293 13.5388 12.1821 14.0897 11.6312C14.6406 11.0803 15.3878 10.7708 16.1668 10.7708ZM31.8335 10.7708C32.6126 10.7708 33.3597 11.0803 33.9106 11.6312C34.4615 12.1821 34.771 12.9293 34.771 13.7083V33.2917C34.771 34.0707 34.4615 34.8179 33.9106 35.3688C33.3597 35.9197 32.6126 36.2292 31.8335 36.2292C31.0544 36.2292 30.3073 35.9197 29.7564 35.3688C29.2055 34.8179 28.896 34.0707 28.896 33.2917V13.7083C28.896 12.9293 29.2055 12.1821 29.7564 11.6312C30.3073 11.0803 31.0544 10.7708 31.8335 10.7708ZM8.3335 16.6458C9.11257 16.6458 9.85973 16.9553 10.4106 17.5062C10.9615 18.0571 11.271 18.8043 11.271 19.5833V27.4167C11.271 28.1957 10.9615 28.9429 10.4106 29.4938C9.85973 30.0447 9.11257 30.3542 8.3335 30.3542C7.55442 30.3542 6.80726 30.0447 6.25637 29.4938C5.70548 28.9429 5.396 28.1957 5.396 27.4167V19.5833C5.396 18.8043 5.70548 18.0571 6.25637 17.5062C6.80726 16.9553 7.55442 16.6458 8.3335 16.6458ZM39.6668 16.6458C40.3971 16.6459 41.1011 16.9179 41.6416 17.4088C42.1822 17.8998 42.5205 18.5745 42.5906 19.3013L42.6043 19.5833V27.4167C42.604 28.1711 42.3134 28.8964 41.7928 29.4423C41.2722 29.9883 40.5615 30.3131 39.808 30.3493C39.0545 30.3856 38.3159 30.1305 37.7453 29.6371C37.1747 29.1436 36.8158 28.4495 36.743 27.6987L36.7293 27.4167V19.5833C36.7293 18.8043 37.0388 18.0571 37.5897 17.5062C38.1406 16.9553 38.8878 16.6458 39.6668 16.6458Z" fill="white"/>
</svg>
